<?xml version="1.0" encoding="UTF-8"?><svg id="Layer_2" xmlns="http://www.w3.org/2000/svg" width="208.38" height="67.57" viewBox="0 0 208.38 67.57"><defs><style>.cls-1{fill:#bcbcbc;}.cls-2{fill:#ccc;}.cls-3{fill:#59868a;}.cls-4{isolation:isolate;}.cls-5{fill:none;stroke:#a03f2f;stroke-linecap:round;stroke-miterlimit:10;stroke-width:3.8px;}</style></defs><g id="Layer_11"><g><path class="cls-5" d="m4.03,65.48c-.47-6.2-3.25-45.16,5.2-57.75,1.1-1.64,3.64-5.42,7.55-5.81,1.04-.1,4.01-.15,9.89,5.64,2.28,2.25,14.63,14.42,10.9,22.24-.83,1.73-2.71,3.8-4.86,3.82-2.22.01-4.19-2.15-5.03-3.98-3.8-8.25,10.22-21.01,11.57-22.24,6.5-5.91,9.8-5.45,10.56-5.31,3.59.66,5.66,4.28,6.54,5.81,7.22,12.58,5.36,51.37,5.03,57.58"/><rect class="cls-2" x="1.64" y="50.53" width="4.02" height="17.04" rx="1.9" ry="1.9" transform="translate(-3.27 .29) rotate(-3.18)"/><path class="cls-3" d="m5.64,53.05l-4.24-.05c-.14-.15-.28-.34-.42-.57-.34-.55-.5-1.09-.59-1.48L0,43.83c0-.24.03-.92.42-1.53.22-.34.48-.54.64-.64,1.4.02,2.8.04,4.21.05.08.06.18.16.3.3.11.13.34.4.48.85.06.2.1.41.11.63l.4,7.11c-.06.41-.17.95-.42,1.53-.16.37-.33.68-.49.91Z"/><g id="STUDIO" class="cls-4"><g class="cls-4"><path class="cls-1" d="m76.95,46.38c-1.41-.61-2.77-1.56-4.08-2.85-.3-.25-.46-.56-.46-.91,0-.3.12-.58.36-.84.24-.25.51-.38.82-.38s.58.13.84.38c1.98,2.18,4.45,3.27,7.41,3.27,1.82,0,3.34-.43,4.54-1.29,1.2-.86,1.81-1.99,1.81-3.38,0-1.09-.3-2-.89-2.72-.6-.72-1.37-1.31-2.34-1.77-.96-.46-2.19-.92-3.69-1.41-1.62-.48-2.98-1.01-4.08-1.6-1.1-.58-2-1.36-2.68-2.34-.68-.97-1.03-2.21-1.03-3.71,0-1.34.36-2.53,1.08-3.57.72-1.04,1.73-1.86,3.04-2.45,1.3-.59,2.81-.89,4.5-.89,1.54,0,3,.26,4.35.78,1.35.52,2.44,1.26,3.25,2.22.38.43.57.8.57,1.1,0,.28-.13.54-.38.78-.25.24-.53.36-.84.36-.25,0-.47-.09-.65-.27-.68-.81-1.6-1.47-2.74-1.98-1.14-.51-2.33-.76-3.57-.76-1.85,0-3.36.41-4.52,1.24-1.17.82-1.75,1.94-1.75,3.36s.56,2.6,1.67,3.38c1.11.79,2.71,1.51,4.79,2.17,1.8.53,3.27,1.08,4.41,1.63,1.14.56,2.07,1.35,2.79,2.38.72,1.03,1.08,2.38,1.08,4.05,0,1.29-.37,2.46-1.12,3.51-.75,1.05-1.79,1.88-3.12,2.49-1.33.61-2.84.91-4.54.91-1.82,0-3.44-.3-4.84-.91Z"/><path class="cls-1" d="m113.74,20.62c.21.2.32.47.32.8s-.11.59-.32.78c-.22.19-.49.29-.82.29h-7.87v23.29c0,.33-.11.6-.34.82-.23.22-.51.32-.84.32-.35,0-.64-.11-.85-.32-.22-.21-.32-.49-.32-.82v-23.29h-7.87c-.33,0-.6-.1-.82-.3-.22-.2-.32-.47-.32-.8,0-.3.11-.56.32-.76.21-.2.49-.3.82-.3h18.09c.33,0,.6.1.82.3Z"/><path class="cls-1" d="m138.55,20.64c.21.22.32.49.32.82v15.73c0,1.85-.44,3.55-1.33,5.09s-2.09,2.76-3.61,3.65c-1.52.89-3.19,1.33-5.02,1.33s-3.53-.44-5.05-1.33c-1.52-.89-2.72-2.1-3.61-3.65s-1.33-3.24-1.33-5.09v-15.73c0-.33.11-.6.32-.82.21-.21.51-.32.89-.32.3,0,.57.11.8.32.23.22.34.49.34.82v15.73c0,1.42.34,2.72,1.03,3.91.68,1.19,1.61,2.13,2.79,2.83,1.18.7,2.45,1.04,3.82,1.04s2.68-.35,3.86-1.04c1.18-.7,2.12-1.64,2.81-2.83.7-1.19,1.04-2.49,1.04-3.91v-15.73c0-.33.1-.6.3-.82.2-.21.47-.32.8-.32s.6.11.82.32Z"/><path class="cls-1" d="m162.99,22.12c1.66,1.2,2.9,2.81,3.72,4.83.82,2.01,1.23,4.24,1.23,6.67s-.41,4.76-1.23,6.76c-.82,2-2.07,3.59-3.72,4.77-1.66,1.18-3.71,1.77-6.14,1.77h-9.69c-.33,0-.6-.11-.82-.32-.22-.21-.32-.49-.32-.82v-24.32c0-.33.11-.6.32-.82.21-.21.49-.32.82-.32h9.69c2.43,0,4.48.6,6.14,1.8Zm.29,19.49c1.49-2.04,2.24-4.71,2.24-8,0-2.05-.32-3.91-.95-5.57-.63-1.66-1.63-2.99-2.98-3.99-1.36-1-3.06-1.5-5.11-1.5h-8.06v22.12h8.06c3.04,0,5.31-1.02,6.8-3.06Z"/><path class="cls-1" d="m175.35,46.57c-.23.23-.51.34-.84.34-.35,0-.64-.11-.85-.32-.22-.21-.32-.5-.32-.85v-24.24c0-.35.11-.64.34-.86.23-.21.52-.32.87-.32.33,0,.61.11.84.34.23.23.34.51.34.84v24.24c-.03.33-.15.61-.38.84Z"/><path class="cls-1" d="m204.92,40.65c-1.09,2.08-2.6,3.7-4.52,4.88-1.93,1.18-4.12,1.77-6.57,1.77s-4.65-.59-6.57-1.77c-1.93-1.18-3.43-2.81-4.52-4.88-1.09-2.08-1.63-4.42-1.63-7.03s.54-4.99,1.63-7.07c1.09-2.08,2.6-3.7,4.52-4.86,1.92-1.16,4.12-1.75,6.57-1.75s4.65.58,6.57,1.75c1.92,1.17,3.43,2.79,4.52,4.86,1.09,2.08,1.63,4.43,1.63,7.07s-.55,4.95-1.63,7.03Zm-2.11-12.94c-.87-1.74-2.09-3.08-3.65-4.05s-3.34-1.44-5.34-1.44-3.78.48-5.34,1.44c-1.56.96-2.77,2.31-3.65,4.05s-1.31,3.71-1.31,5.91.44,4.17,1.31,5.91,2.09,3.08,3.65,4.05c1.56.96,3.34,1.44,5.34,1.44s3.78-.48,5.34-1.44,2.77-2.31,3.65-4.05,1.31-3.71,1.31-5.91-.44-4.17-1.31-5.91Z"/></g></g></g></g></svg>