<?xml version="1.0" encoding="UTF-8"?><svg id="Layer_2" xmlns="http://www.w3.org/2000/svg" width="272" height="272" viewBox="0 0 272 272"><defs><style>.cls-1{fill:#302f30;}.cls-2{fill:#ccc;}.cls-3{fill:#59868a;}.cls-4{fill:none;stroke:#a03f2f;stroke-linecap:round;stroke-miterlimit:10;stroke-width:10px;}</style></defs><g id="Layer_4"><rect class="cls-1" width="272" height="272" rx="31.47" ry="31.47"/><path class="cls-4" d="m61.81,218.51c-1.23-16.11-8.43-117.33,13.5-150.02,2.86-4.26,9.44-14.07,19.6-15.09,2.7-.27,10.43-.4,25.7,14.66,5.93,5.84,38.01,37.46,28.32,57.76-2.15,4.51-7.04,9.88-12.63,9.91-5.76.03-10.88-5.59-13.07-10.35-9.87-21.44,26.55-54.57,30.06-57.76,16.89-15.36,25.45-14.16,27.44-13.79,9.32,1.72,14.72,11.12,16.99,15.09,18.76,32.69,13.91,133.44,13.07,149.58"/><rect class="cls-2" x="55.86" y="188.97" width="10.44" height="34.96" rx="5.22" ry="5.22" transform="translate(-11.37 3.71) rotate(-3.18)"/><path class="cls-3" d="m66,194h-11c-.35-.32-.72-.72-1.08-1.2-.86-1.15-1.28-2.3-1.49-3.12l-.84-15.07c0-.51.09-1.95,1.13-3.26.59-.74,1.26-1.15,1.69-1.37,3.64,0,7.28,0,10.92,0,.2.13.48.34.77.62.28.27.87.85,1.21,1.79.15.42.25.86.28,1.33l.84,15.07c-.16.86-.48,2.02-1.13,3.26-.42.79-.88,1.44-1.3,1.95Z"/></g></svg>