<?xml version="1.0" encoding="UTF-8"?><svg id="Layer_2" xmlns="http://www.w3.org/2000/svg" width="1280.01" height="130.17" viewBox="0 0 1280.01 130.17"><defs><style>.cls-1{fill:#ccc;}.cls-2{fill:#59868a;}.cls-3{fill:none;stroke:#a03f2f;stroke-linecap:round;stroke-miterlimit:10;stroke-width:10px;}</style></defs><g id="Layer_11"><g><path class="cls-3" d="m48.25,41.06c20.83-4.98,48.38-9.85,81-11,19.96-.7,56.61-1.74,101,9,29.59,7.16,27.65,11.1,81.49,27.38,35.09,10.61,53.01,15.92,70.88,16.09,38.31.35,67.62-13.94,78.63-19.46,35.18-17.64,29.59-28.93,62-44,27.55-12.81,50.05-13.23,91-14,31.24-.59,43.37,3.29,49,12,.8,1.23,6.13,9.77,3,18-6.75,17.78-43.05,8.07-77.88,34-13.86,10.32-14.15,16.34-14.12,18,.25,15.83,34.84,26.78,45,30,43.31,13.71,82.15,6.97,109,2,25.09-4.64,38.75-7.17,55-17,27.87-16.86,26.61-32.97,49-53,34.61-30.97,81.92-32.11,119.12-33,25.13-.6,45.59,3.06,86.5,10.5,80.8,14.69,102.87,26.89,150.17,23.06,19.69-1.59,35.51-5.3,45.33-8"/><rect class="cls-1" x="11.48" y="35.48" width="10.44" height="34.96" rx="5.22" ry="5.22" transform="translate(60.43 18.73) rotate(69.45)"/><path class="cls-2" d="m30.05,53.93c-1.09-3.5-2.19-7-3.28-10.5.2-.43.47-.9.82-1.39.84-1.17,1.82-1.91,2.53-2.35l14.14-5.3c.49-.15,1.89-.5,3.45.11.88.34,1.47.86,1.81,1.2,1.09,3.47,2.17,6.95,3.26,10.42-.07.23-.18.55-.36.92-.18.35-.55,1.08-1.34,1.69-.35.27-.75.5-1.19.66l-14.14,5.3c-.87.1-2.07.15-3.45-.11-.88-.16-1.64-.41-2.24-.66Z"/><rect class="cls-1" x="1257.73" y="16.86" width="10.44" height="34.96" rx="5.22" ry="5.22" transform="translate(1559.19 1262.53) rotate(-105.12)"/><path class="cls-2" d="m1249.75,32.1l2.27,10.76c-.24.41-.55.86-.95,1.31-.95,1.08-1.99,1.72-2.74,2.1l-14.57,3.94c-.5.1-1.93.32-3.43-.43-.84-.42-1.39-.99-1.69-1.37-.75-3.56-1.5-7.12-2.25-10.69.09-.22.23-.54.45-.88.21-.33.65-1.02,1.5-1.56.38-.24.79-.42,1.24-.54l14.57-3.94c.88-.02,2.07.05,3.43.43.86.25,1.59.56,2.17.87Z"/></g></g></svg>