<?xml version="1.0" encoding="UTF-8"?><svg id="Layer_2" xmlns="http://www.w3.org/2000/svg" width="136.26" height="144.66" viewBox="0 0 136.26 144.66"><defs><style>.cls-1{fill:#ccc;}.cls-2{fill:#59868a;}.cls-3{fill:none;stroke:#a03f2f;stroke-linecap:round;stroke-miterlimit:10;stroke-width:8px;}</style></defs><g id="Layer_4"><path class="cls-3" d="m8.43,140.2c-1.01-13.28-6.95-96.75,11.14-123.71,2.36-3.51,7.79-11.6,16.17-12.44,2.22-.22,8.6-.33,21.19,12.09,4.89,4.82,31.34,30.89,23.35,47.63-1.77,3.72-5.8,8.15-10.42,8.18-4.75.03-8.97-4.61-10.78-8.53-8.14-17.68,21.89-45,24.79-47.63,13.92-12.67,20.98-11.68,22.63-11.38,7.69,1.42,12.14,9.17,14.01,12.44,15.47,26.96,11.47,110.04,10.78,123.35"/><rect class="cls-1" x="3.52" y="115.85" width="8.61" height="28.83" rx="4.3" ry="4.3" transform="translate(-7.22 .64) rotate(-3.18)"/><path class="cls-2" d="m11.88,119.99H2.81c-.29-.26-.6-.59-.89-.99-.71-.95-1.05-1.9-1.23-2.57l-.69-12.43c0-.42.07-1.61.93-2.69.48-.61,1.04-.95,1.39-1.13,3,0,6,0,9.01,0,.16.11.39.28.64.51.23.23.71.7,1,1.47.13.34.21.71.23,1.1l.69,12.43c-.13.71-.39,1.66-.94,2.69-.35.66-.73,1.19-1.07,1.6Z"/></g></svg>